<?xml version="1.0" standalone="no"?>
<!DOCTYPE svg PUBLIC "-//W3C//DTD SVG 20010904//EN"
 "http://www.w3.org/TR/2001/REC-SVG-20010904/DTD/svg10.dtd">
<svg version="1.0" xmlns="http://www.w3.org/2000/svg"
 width="2816.000000pt" height="1536.000000pt" viewBox="0 0 2816.000000 1536.000000"
 preserveAspectRatio="xMidYMid meet">

<g transform="translate(0.000000,1536.000000) scale(0.100000,-0.100000)"
fill="#000000" stroke="none">
<path d="M0 7680 l0 -7680 14080 0 14080 0 0 7680 0 7680 -14080 0 -14080 0 0
-7680z m14130 4278 c-1 -101 -1 -387 -1 -635 l1 -453 33 -14 c159 -66 202
-274 80 -387 -115 -107 -295 -79 -371 59 -31 55 -32 153 -3 210 23 45 81 99
128 118 l33 14 0 555 c0 305 -2 555 -4 555 -3 0 -53 -30 -113 -66 -121 -75
-405 -247 -808 -490 l-270 -164 -5 -457 -5 -458 -45 0 -45 0 -3 448 -2 447
-639 0 -640 0 -3 -107 c-2 -60 -3 -785 -3 -1613 0 -1648 -3 -1563 60 -1870 63
-313 227 -703 384 -915 55 -74 55 -73 22 -90 -55 -28 -61 -23 -144 114 -213
354 -324 662 -389 1080 l-23 146 0 1675 0 1675 712 1 712 2 47 28 c27 16 66
40 89 54 23 14 86 51 141 83 163 95 256 154 255 161 -1 8 -2267 17 -2287 9
-12 -4 -14 -287 -14 -1737 0 -1075 4 -1792 10 -1891 24 -372 123 -787 255
-1071 21 -43 50 -107 66 -142 76 -168 254 -441 401 -617 318 -381 715 -706
1323 -1082 305 -189 986 -573 1015 -573 24 0 524 274 815 447 340 202 702 447
943 640 182 145 467 424 587 573 341 425 556 874 655 1370 69 344 65 219 65
2250 l0 1835 -310 1 c-170 1 -615 -1 -988 -4 l-677 -5 -24 -52 c-26 -57 -75
-101 -124 -111 -18 -4 -33 -12 -33 -18 -1 -6 -1 -261 0 -566 1 -309 -2 -561
-7 -568 -6 -8 -24 -12 -48 -10 l-39 3 -3 565 c-1 311 -4 570 -6 576 -2 6 -17
14 -33 17 -41 9 -103 64 -124 111 -25 56 -25 155 0 205 91 178 349 172 426
-11 l15 -38 413 0 c226 -1 692 -2 1035 -3 l622 -2 1 -685 c0 -377 2 -1178 4
-1780 2 -654 0 -1153 -6 -1240 -26 -386 -118 -789 -250 -1093 -190 -439 -501
-870 -861 -1196 -301 -271 -725 -573 -1160 -826 -10 -5 -66 -39 -125 -74 -164
-97 -389 -222 -668 -372 l-91 -49 -99 55 c-54 30 -100 55 -102 55 -3 0 -109
58 -213 117 -19 11 -71 39 -115 63 -147 80 -678 401 -830 503 -447 299 -792
600 -1065 927 -313 376 -572 916 -665 1385 -74 377 -75 397 -75 2416 l0 1796
1292 2 1292 2 305 185 c168 101 309 184 314 184 4 0 8 -82 7 -182z m2678 -633
c13 -12 14 -3076 2 -3245 -35 -474 -150 -867 -365 -1245 -220 -388 -540 -732
-990 -1065 -120 -88 -285 -200 -296 -200 -4 0 -5 -34 -2 -75 8 -96 -12 -150
-73 -204 -144 -127 -372 -28 -376 163 -1 97 62 197 146 227 l36 13 0 528 0
528 45 0 45 0 2 -527 3 -526 55 -29 c30 -15 57 -28 60 -28 8 0 144 91 255 170
171 122 341 265 499 420 408 400 658 829 785 1350 79 325 76 243 76 2053 l0
1607 -613 3 -614 2 -23 42 -24 42 22 3 c42 7 1339 0 1345 -7z m-465 -397 c-2
-5 -3 -112 -3 -239 l0 -230 -42 3 -43 3 -5 158 -5 158 -234 -236 c-129 -129
-237 -235 -241 -235 -4 0 -17 11 -30 25 l-24 25 40 43 c21 23 127 132 234 242
l195 200 -157 3 c-116 2 -158 6 -159 15 0 6 -2 26 -3 44 -3 26 0 32 18 35 42
6 461 -7 459 -14z m-686 -842 c148 -30 364 -91 468 -133 l70 -28 6 -210 c4
-116 10 -296 14 -401 l7 -192 -37 -4 c-43 -5 -44 -3 -70 112 -86 384 -379 706
-698 767 -152 29 -323 5 -465 -64 -314 -154 -513 -523 -572 -1060 -16 -146 -8
-495 14 -618 52 -286 157 -526 308 -704 258 -305 706 -404 1088 -242 171 73
337 228 435 406 15 28 29 53 31 57 8 13 74 -15 74 -31 0 -44 -115 -237 -204
-343 -235 -281 -598 -428 -1001 -404 -677 41 -1175 499 -1317 1211 -19 94 -22
144 -23 345 0 205 3 249 22 346 95 465 332 813 698 1023 164 94 351 156 565
187 151 21 423 12 587 -20z m-2267 -51 c0 -35 -1 -35 -43 -35 -145 0 -253 -93
-286 -248 -7 -36 -13 -375 -16 -1070 -3 -559 -7 -1060 -11 -1112 -18 -318 -98
-577 -239 -775 -91 -128 -257 -261 -440 -353 -96 -47 -270 -105 -295 -97 -22
7 -57 58 -44 62 72 24 226 150 282 230 72 105 149 314 182 498 34 184 41 436
39 1405 -2 1010 -7 1199 -33 1277 -34 103 -125 169 -247 180 -46 5 -58 9 -62
25 -13 49 -36 47 609 48 l604 0 0 -35z m273 -2546 c58 -40 79 -63 103 -114 96
-203 -127 -418 -326 -315 -84 43 -130 122 -131 222 -1 93 25 141 114 208 55
41 179 41 240 -1z m486 -1024 c61 -21 97 -50 127 -102 72 -122 33 -259 -92
-318 -30 -14 -54 -31 -54 -38 2 -346 -7 -1058 -13 -1064 -13 -12 -307 141
-617 322 -74 43 -166 96 -205 118 -114 65 -531 346 -655 442 -143 110 -310
252 -310 264 0 3 14 14 30 23 41 23 54 17 180 -88 247 -206 561 -421 930 -637
47 -27 112 -65 145 -85 33 -19 123 -70 200 -112 77 -42 157 -87 178 -100 20
-12 37 -20 38 -18 0 1 3 209 5 461 5 406 3 462 -11 483 -8 13 -23 24 -33 24
-27 0 -90 57 -113 102 -49 96 -27 203 58 277 65 58 137 73 212 46z m-1234
-2530 c57 -15 111 -42 148 -73 16 -14 15 -17 -15 -42 l-32 -27 -66 33 c-56 29
-75 34 -136 34 -109 0 -197 -52 -237 -140 -28 -64 -27 -180 2 -237 45 -89 120
-134 231 -140 72 -4 77 -3 135 32 33 20 61 41 63 46 4 10 62 -45 62 -59 0 -5
-16 -22 -36 -37 -126 -96 -344 -86 -462 20 -112 101 -147 287 -80 422 25 51
99 122 153 147 76 36 179 44 270 21z m885 -13 c144 -65 229 -226 202 -379 -13
-74 -23 -98 -60 -150 -123 -167 -426 -178 -567 -21 -62 68 -79 118 -80 233 0
95 2 103 33 161 19 34 46 73 60 87 35 33 112 75 159 87 62 15 201 6 253 -18z
m945 -10 c240 -110 260 -455 35 -597 -67 -42 -142 -55 -326 -55 l-169 0 0 341
0 341 205 -4 c188 -3 209 -5 255 -26z m955 -12 l0 -40 -190 0 -190 0 0 -107 0
-108 170 0 170 0 0 -37 0 -38 -170 0 -170 0 0 -112 0 -113 194 3 193 3 6 -37
c4 -20 4 -41 1 -46 -3 -4 -115 -8 -249 -8 l-244 0 -3 340 -3 340 243 0 242 0
0 -40z m11374 -2371 c21 -66 74 -154 131 -218 61 -67 236 -171 289 -171 9 0
16 -8 16 -17 0 -13 -17 -23 -61 -37 -66 -21 -154 -74 -218 -131 -67 -61 -171
-236 -171 -289 0 -9 -8 -16 -17 -16 -13 0 -23 17 -37 61 -21 66 -74 154 -131
218 -61 67 -236 171 -289 171 -9 0 -16 8 -16 18 0 12 17 22 61 36 66 21 154
74 218 131 67 61 171 236 171 289 0 9 8 16 18 16 12 0 22 -17 36 -61z"/>
<path d="M14883 11843 c-77 -44 -107 -142 -62 -208 50 -72 150 -82 217 -21 30
28 36 40 39 87 3 42 0 61 -16 86 -40 64 -118 89 -178 56z"/>
<path d="M14013 10764 c-51 -26 -76 -75 -71 -135 8 -82 60 -132 138 -132 133
0 187 157 86 252 -33 31 -108 38 -153 15z"/>
<path d="M11320 6756 c0 -2 8 -10 18 -17 15 -13 16 -12 3 4 -13 16 -21 21 -21
13z"/>
<path d="M11414 6610 c2 -16 20 -14 24 2 3 10 2 10 -6 -1 -7 -9 -11 -10 -15
-2 -4 7 -5 8 -3 1z"/>
<path d="M11440 6560 c0 -5 5 -10 11 -10 5 0 7 5 4 10 -3 6 -8 10 -11 10 -2 0
-4 -4 -4 -10z"/>
<path d="M11470 6539 c0 -5 -4 -8 -9 -5 -10 6 -25 -24 -16 -32 3 -3 5 0 5 7 0
7 5 9 10 6 6 -3 10 -1 10 6 0 8 5 7 17 -2 15 -13 15 -12 4 9 -13 24 -21 28
-21 11z"/>
<path d="M11495 6490 c3 -5 10 -10 16 -10 5 0 9 5 9 10 0 6 -7 10 -16 10 -8 0
-12 -4 -9 -10z"/>
<path d="M11520 6466 c0 -2 8 -10 18 -17 15 -13 16 -12 3 4 -13 16 -21 21 -21
13z"/>
<path d="M11790 6046 c0 -2 8 -10 18 -17 15 -13 16 -12 3 4 -13 16 -21 21 -21
13z"/>
<path d="M11875 5959 c59 -60 81 -74 91 -57 5 7 3 8 -6 3 -10 -6 -12 -4 -7 9
4 10 3 15 -3 11 -18 -11 -31 5 -20 25 8 16 8 18 -5 14 -8 -3 -12 -11 -8 -18 3
-6 -3 -2 -15 8 -26 22 -30 35 -5 15 14 -12 16 -12 12 0 -3 8 -15 21 -27 29
-21 14 -22 13 -16 -4 5 -18 5 -18 -9 -1 -8 9 -18 17 -23 17 -4 0 14 -23 41
-51z"/>
<path d="M11970 5934 c0 -12 60 -68 66 -62 2 3 -12 20 -31 38 -19 19 -35 29
-35 24z"/>
<path d="M11975 5880 c-3 -5 -1 -10 4 -10 6 0 11 5 11 10 0 6 -2 10 -4 10 -3
0 -8 -4 -11 -10z"/>
<path d="M12215 5660 c-3 -5 -1 -10 4 -10 6 0 11 5 11 10 0 6 -2 10 -4 10 -3
0 -8 -4 -11 -10z"/>
<path d="M12388 5553 c7 -3 16 -2 19 1 4 3 -2 6 -13 5 -11 0 -14 -3 -6 -6z"/>
<path d="M12411 5536 c2 -2 15 -9 29 -15 24 -11 24 -11 6 3 -16 13 -49 24 -35
12z"/>
<path d="M12360 5526 c0 -2 9 -6 20 -9 11 -3 18 -1 14 4 -5 9 -34 13 -34 5z"/>
<path d="M12410 5501 c0 -5 5 -13 10 -16 6 -3 10 -2 10 4 0 5 -4 13 -10 16 -5
3 -10 2 -10 -4z"/>
<path d="M12470 5500 c0 -5 5 -10 11 -10 6 0 9 -6 6 -14 -4 -10 0 -12 14 -9
24 7 24 7 -6 27 -14 9 -25 12 -25 6z"/>
<path d="M12546 5445 c10 -8 23 -15 28 -15 6 0 1 7 -10 15 -10 8 -23 15 -28
15 -6 0 -1 -7 10 -15z"/>
<path d="M12492 5441 c-10 -6 -5 -11 19 -20 39 -13 39 -13 39 -1 0 6 -12 10
-26 10 -14 0 -23 4 -19 10 7 12 4 12 -13 1z"/>
<path d="M12815 5210 c4 -6 11 -8 16 -5 14 9 11 15 -7 15 -8 0 -12 -5 -9 -10z"/>
<path d="M13000 5140 c0 -6 7 -10 15 -10 8 0 15 2 15 4 0 2 -7 6 -15 10 -8 3
-15 1 -15 -4z"/>
<path d="M12976 5108 c3 -5 10 -6 15 -3 13 9 11 12 -6 12 -8 0 -12 -4 -9 -9z"/>
<path d="M13025 5083 c11 -11 22 -16 23 -11 2 4 8 6 13 2 5 -3 9 0 9 5 0 6 -6
11 -14 11 -8 0 -23 3 -33 7 -16 5 -16 4 2 -14z"/>
<path d="M13090 5080 c-12 -7 -10 -9 7 -7 12 0 19 5 17 9 -6 10 -6 10 -24 -2z"/>
<path d="M13194 5022 c3 -5 0 -13 -6 -15 -9 -4 -10 -6 -1 -6 17 -1 25 16 12
25 -7 4 -9 3 -5 -4z"/>
<path d="M13280 4926 c0 -2 7 -7 16 -10 8 -3 12 -2 9 4 -6 10 -25 14 -25 6z"/>
<path d="M13596 4789 c8 -13 44 -31 44 -22 0 4 -11 13 -25 20 -14 6 -23 7 -19
2z"/>
<path d="M13664 4745 c8 -8 21 -15 28 -15 8 1 6 6 -6 15 -26 20 -42 19 -22 0z"/>
<path d="M13750 4700 c0 -6 7 -10 15 -10 8 0 15 2 15 4 0 2 -7 6 -15 10 -8 3
-15 1 -15 -4z"/>
<path d="M13735 4665 c22 -14 44 -25 49 -25 15 0 -27 29 -41 30 -7 0 -13 5
-13 10 0 6 -8 10 -17 10 -11 -1 -3 -10 22 -25z"/>
<path d="M13808 4623 c7 -3 16 -2 19 1 4 3 -2 6 -13 5 -11 0 -14 -3 -6 -6z"/>
<path d="M14880 5598 c-57 -30 -82 -65 -87 -125 -13 -149 180 -209 265 -83 20
29 23 44 20 88 -5 59 -29 92 -90 123 -47 24 -54 24 -108 -3z"/>
<path d="M15090 5385 c0 -8 2 -15 4 -15 2 0 6 7 10 15 3 8 1 15 -4 15 -6 0
-10 -7 -10 -15z"/>
<path d="M12210 6500 c-9 -6 -10 -10 -3 -10 6 0 15 5 18 10 8 12 4 12 -15 0z"/>
<path d="M14012 6370 c-101 -62 -94 -204 13 -251 38 -17 50 -18 90 -8 56 14
100 61 110 118 19 113 -114 201 -213 141z"/>
<path d="M12410 6075 c-7 -8 -8 -15 -2 -15 5 0 15 7 22 15 7 8 8 15 2 15 -5 0
-15 -7 -22 -15z"/>
<path d="M12775 5759 c-4 -6 -5 -12 -2 -15 2 -3 7 2 10 11 7 17 1 20 -8 4z"/>
<path d="M12932 5661 c4 -13 18 -16 19 -4 0 4 -5 9 -11 12 -7 2 -11 -2 -8 -8z"/>
<path d="M13976 5069 c7 -12 65 -41 70 -36 3 2 -13 13 -35 24 -22 11 -38 16
-35 12z"/>
<path d="M14000 5016 c0 -2 7 -7 16 -10 8 -3 12 -2 9 4 -6 10 -25 14 -25 6z"/>
<path d="M12610 3859 c0 -5 5 -7 10 -4 6 3 10 8 10 11 0 2 -4 4 -10 4 -5 0
-10 -5 -10 -11z"/>
<path d="M12557 3822 c-21 -23 -22 -33 -2 -26 8 4 13 10 10 14 -3 5 3 13 12
19 10 6 13 11 7 11 -6 0 -18 -8 -27 -18z"/>
<path d="M13020 3830 c-8 -5 -12 -12 -9 -15 4 -3 12 1 19 10 14 17 11 19 -10
5z"/>
<path d="M12604 3808 l-19 -21 28 18 c28 18 33 25 19 25 -5 0 -17 -10 -28 -22z"/>
<path d="M12490 3530 c0 -5 5 -10 10 -10 6 0 10 5 10 10 0 6 -4 10 -10 10 -5
0 -10 -4 -10 -10z"/>
<path d="M12524 3506 c-20 -24 -20 -24 -1 -64 30 -66 61 -94 94 -86 25 7 27 6
14 -9 -16 -21 -5 -23 15 -3 12 12 10 16 -14 24 -15 6 -21 11 -15 11 18 1 -48
90 -67 91 -13 0 -13 2 -1 9 12 7 12 13 3 24 -7 7 -9 17 -5 20 3 4 4 7 2 7 -2
0 -13 -11 -25 -24z"/>
<path d="M13532 3834 c-240 -120 -152 -494 117 -494 77 0 119 18 176 73 55 54
85 121 85 192 0 52 -27 128 -61 168 -72 88 -210 114 -317 61z"/>
<path d="M13930 3721 c0 -11 4 -22 9 -25 4 -3 6 6 3 19 -5 30 -12 33 -12 6z"/>
<path d="M13410 3400 c0 -5 5 -10 11 -10 5 0 7 5 4 10 -3 6 -8 10 -11 10 -2 0
-4 -4 -4 -10z"/>
<path d="M13458 3333 c6 -2 18 -2 25 0 6 3 1 5 -13 5 -14 0 -19 -2 -12 -5z"/>
<path d="M14394 3851 c-7 -8 -4 -500 4 -504 4 -3 66 -2 137 2 103 6 139 12
172 29 51 27 107 94 122 147 42 152 -34 288 -179 320 -37 9 -248 13 -256 6z"/>
<path d="M15588 3593 c12 -2 30 -2 40 0 9 3 -1 5 -23 4 -22 0 -30 -2 -17 -4z"/>
</g>
</svg>
